PathFileType	3	(X/Y/Z)	dance_move_1__view2_aligned.trc
DataRate	CameraRate	NumFrames	NumMarkers	Units	OrigDataRate	OrigDataStartFrame	OrigNumFrames
100.0	100.0	7	19	mm	100.0	578	890
Frame#	Time	pelvis			neck			head			hip_left			hip_right			knee_left			knee_right			ankle_left			ankle_right			heel_left			heel_right			toe_left			toe_right			shoulder_left			shoulder_right			elbow_left			elbow_right			wrist_left			wrist_right			
		X1	Y1	Z1	X2	Y2	Z2	X3	Y3	Z3	X4	Y4	Z4	X5	Y5	Z5	X6	Y6	Z6	X7	Y7	Z7	X8	Y8	Z8	X9	Y9	Z9	X10	Y10	Z10	X11	Y11	Z11	X12	Y12	Z12	X13	Y13	Z13	X14	Y14	Z14	X15	Y15	Z15	X16	Y16	Z16	X17	Y17	Z17	X18	Y18	Z18	X19	Y19	Z19	
578	5.77000	96.202156	749.683705	137.643114	102.322639	1235.694553	-156.374743	90.605941	1268.737752	-315.669050	20.501493	748.017363	142.918182	171.903296	751.350032	132.368125	-141.210984	479.949317	-116.298161	255.897684	465.979070	-150.994794	-132.557044	122.763729	43.890873	256.859308	100.995064	-5.935483	-124.429650	81.824042	85.023870	250.757081	58.576630	34.573248	-160.850661	50.513096	-125.488221	293.838110	34.653479	-179.003774	-77.020821	1205.359221	-118.900331	277.204415	1187.940312	-133.800190	-138.957048	926.386100	-130.360108	362.872223	914.292222	-162.087229	-146.573976	679.021050	-187.222172	327.001062	685.396005	-255.580031
579	5.78000	97.164911	750.424356	137.131099	105.096839	1237.300258	-156.469214	93.435382	1270.389705	-315.753201	21.429484	748.887607	142.687349	172.900815	751.961089	131.574924	-144.911830	480.836736	-113.119074	256.822206	465.242678	-149.781207	-135.122103	122.669522	44.245891	258.825437	100.191479	-5.615776	-126.445192	81.568711	85.067275	252.882706	57.799069	34.865164	-164.989653	50.511303	-125.134085	295.381685	33.755082	-178.801464	-74.189505	1208.627400	-118.727832	279.597374	1188.389016	-133.463520	-140.278759	930.362605	-129.198198	367.685322	915.071238	-160.748077	-152.303793	682.435433	-185.284966	337.673894	684.242226	-254.898143
580	5.79000	98.127666	751.165007	136.619083	107.871038	1238.905963	-156.563685	96.264823	1272.041658	-315.837352	22.357476	749.757851	142.456517	173.898334	752.572147	130.781724	-148.612676	481.724156	-109.939988	257.746727	464.506286	-148.567620	-137.687161	122.575316	44.600909	260.791565	99.387894	-5.296068	-128.460733	81.313381	85.110681	255.008330	57.021507	35.157081	-169.128645	50.509510	-124.779949	296.925260	32.856685	-178.599154	-71.358188	1211.895580	-118.555334	281.990333	1188.837719	-133.126849	-141.600470	934.339109	-128.036289	372.498422	915.850255	-159.408926	-158.033610	685.849816	-183.347760	348.346726	683.088447	-254.216254
581	5.80000	99.090421	751.905658	136.107067	110.645238	1240.511668	-156.658157	99.094264	1273.693611	-315.921503	23.285468	750.628096	142.225684	174.895853	753.183205	129.988523	-152.313522	482.611576	-106.760901	258.671249	463.769894	-147.354033	-140.252219	122.481110	44.955927	262.757693	98.584310	-4.976360	-130.476275	81.058050	85.154086	257.133955	56.243946	35.448997	-173.267637	50.507717	-124.425813	298.468835	31.958288	-178.396844	-68.526871	1215.163759	-118.382835	284.383292	1189.286422	-132.790179	-142.922181	938.315614	-126.874379	377.311521	916.629271	-158.069774	-163.763426	689.264198	-181.410554	359.019557	681.934668	-253.534366
582	5.81000	100.053177	752.646309	135.595051	113.419438	1242.117373	-156.752628	101.923706	1275.345564	-316.005654	24.213459	751.498340	141.994852	175.893372	753.794262	129.195322	-156.014368	483.498995	-103.581814	259.595770	463.033501	-146.140446	-142.817278	122.386904	45.310945	264.723822	97.780725	-4.656652	-132.491817	80.802720	85.197492	259.259579	55.466385	35.740913	-177.406629	50.505924	-124.071677	300.012410	31.059890	-178.194534	-65.695554	1218.431938	-118.210336	286.776251	1189.735125	-132.453509	-144.243893	942.292118	-125.712469	382.124620	917.408287	-156.730622	-169.493243	692.678581	-179.473347	369.692389	680.780888	-252.852477
583	5.82000	101.335353	753.373766	135.225065	115.217835	1243.529294	-156.938627	103.390874	1276.893236	-316.241519	25.430114	752.285152	141.969987	177.241022	754.462365	128.480207	-158.430153	484.043102	-101.171394	259.709592	462.765177	-145.902888	-143.872825	122.189725	45.682032	265.600349	97.497962	-4.945976	-133.100332	80.461844	85.330757	260.311992	55.234575	35.470379	-179.483038	50.578024	-123.796916	300.041666	30.549824	-178.604672	-63.844440	1220.786405	-117.819628	288.467958	1190.359590	-132.545992	-145.002557	944.880878	-124.917111	386.021844	918.113890	-155.812255	-173.314550	694.786542	-178.815037	377.695075	679.981935	-252.262430
584	5.83000	102.617530	754.101223	134.855080	117.016232	1244.941215	-157.124626	104.858043	1278.440908	-316.477385	26.646769	753.071965	141.945123	178.588673	755.130468	127.765091	-160.845937	484.587209	-98.760975	259.823414	462.496853	-145.665331	-144.928372	121.992545	46.053119	266.476877	97.215200	-5.235299	-133.708847	80.120968	85.464022	261.364404	55.002764	35.199844	-181.559446	50.650123	-123.522156	300.070922	30.039758	-179.014810	-61.993325	1223.140872	-117.428919	290.159665	1190.984055	-132.638475	-145.761221	947.469638	-124.121752	389.919067	918.819492	-154.893889	-177.135857	696.894503	-178.156726	385.697762	679.182982	-251.672383
